# xmcd
#
# Track frame offsets:
#	150
#	13757
#	27620
#	37772
#	58573
#	78419
#	98345
#	112527
#	131051
#	146814
#	161648
#
# Disc length: 2461 seconds
#
# Revision: 0
# Processed by: cddbd v1.5.2PL0 Copyright (c) Steve Scherf et al.
# Submitted via: EZCDAudioConverter 7.0.5.1
#
DISCID=82099b0b
DTITLE=Maisteri T. - Voodoo-mies
DYEAR=2015
DGENRE=
TTITLE0=Kuu
TTITLE1=En bonjaa espanjaa [-I Can’t Speak No Spanish (No Hablo Espanjol)-]
TTITLE2=Liikaa oot
TTITLE3=Uneton
TTITLE4=Kuu taivaalta
TTITLE5=Et saa [-Don’t Do It-]
TTITLE6=Syntisäkki
TTITLE7=Mietin päällä väärällä [-Thinking With The Wrong Head-]
TTITLE8=Voodoo-mies
TTITLE9=Estoton
TTITLE10=Kuuman päivän ilta [-Cool In The Evening-]
EXTD=
EXTT0=
EXTT1=
EXTT2=
EXTT3=
EXTT4=
EXTT5=
EXTT6=
EXTT7=
EXTT8=
EXTT9=
EXTT10=
PLAYORDER=
